<?xml version="1.0" encoding="us-ascii" standalone="no"?><svg xmlns="http://www.w3.org/2000/svg" xmlns:xlink="http://www.w3.org/1999/xlink" contentStyleType="text/css" height="1862px" preserveAspectRatio="none" style="width:1117px;height:1862px;background:#FFFFFF;" version="1.1" viewBox="0 0 1117 1862" width="1117px" zoomAndPan="magnify"><defs/><g><text fill="#000000" font-family="sans-serif" font-size="14" font-weight="bold" lengthAdjust="spacing" textLength="355" x="374" y="24.5332">Diagrama de Casos de Uso - Sistema de Pr&#233;stamos</text><!--cluster Sistema de Gesti?n de Pr?stamos--><g id="cluster_Sistema de Gesti&#243;n de Pr&#233;stamos"><rect fill="none" height="1555" rx="2.5" ry="2.5" style="stroke:#181818;stroke-width:1.0;" width="664" x="231" y="301.2594"/><text fill="#000000" font-family="sans-serif" font-size="14" font-weight="bold" lengthAdjust="spacing" textLength="236" x="445" y="317.7926">Sistema de Gesti&#243;n de Pr&#233;stamos</text></g><!--cluster Gesti?n de Cat?logos--><g id="cluster_Gesti&#243;n de Cat&#225;logos"><rect fill="#DDDDDD" height="395" rx="2.5" ry="2.5" style="stroke:#181818;stroke-width:1.0;" width="223" x="284" y="345.2594"/><text fill="#000000" font-family="sans-serif" font-size="14" font-weight="bold" lengthAdjust="spacing" textLength="151" x="320" y="361.7926">Gesti&#243;n de Cat&#225;logos</text></g><!--cluster Gesti?n de Historial--><g id="cluster_Gesti&#243;n de Historial"><rect fill="#E8F4F8" height="190" rx="2.5" ry="2.5" style="stroke:#181818;stroke-width:1.0;" width="606.5" x="264" y="764.2594"/><text fill="#000000" font-family="sans-serif" font-size="14" font-weight="bold" lengthAdjust="spacing" textLength="139" x="497.75" y="780.7926">Gesti&#243;n de Historial</text></g><!--cluster Gesti?n de Pr?stamos--><g id="cluster_Gesti&#243;n de Pr&#233;stamos"><rect fill="#F0F8E8" height="365" rx="2.5" ry="2.5" style="stroke:#181818;stroke-width:1.0;" width="611" x="260" y="978.2594"/><text fill="#000000" font-family="sans-serif" font-size="14" font-weight="bold" lengthAdjust="spacing" textLength="155" x="488" y="994.7926">Gesti&#243;n de Pr&#233;stamos</text></g><!--cluster Gesti?n de Abonos--><g id="cluster_Gesti&#243;n de Abonos"><rect fill="#FFF8E8" height="163" rx="2.5" ry="2.5" style="stroke:#181818;stroke-width:1.0;" width="545" x="293" y="1367.2594"/><text fill="#000000" font-family="sans-serif" font-size="14" font-weight="bold" lengthAdjust="spacing" textLength="134" x="498.5" y="1383.7926">Gesti&#243;n de Abonos</text></g><!--cluster Reportes y Consultas--><g id="cluster_Reportes y Consultas"><rect fill="#F8E8F0" height="278" rx="2.5" ry="2.5" style="stroke:#181818;stroke-width:1.0;" width="281" x="255" y="1554.2594"/><text fill="#000000" font-family="sans-serif" font-size="14" font-weight="bold" lengthAdjust="spacing" textLength="150" x="320.5" y="1570.7926">Reportes y Consultas</text></g><g id="elem_UC_A"><ellipse cx="395.597" cy="400.3788" fill="#F1F1F1" rx="81.097" ry="18.6194" style="stroke:#181818;stroke-width:0.5;"/><text fill="#000000" font-family="sans-serif" font-size="14" lengthAdjust="spacing" textLength="117" x="336.5843" y="404.2575">RF: Listar Puestos</text></g><g id="elem_UC_B"><ellipse cx="395.3478" cy="473.1289" fill="#F1F1F1" rx="84.8478" ry="19.3696" style="stroke:#181818;stroke-width:0.5;"/><text fill="#000000" font-family="sans-serif" font-size="14" lengthAdjust="spacing" textLength="126" x="332.3478" y="476.8575">RF: Agregar Puesto</text></g><g id="elem_UC_C"><ellipse cx="395.605" cy="548.4804" fill="#F1F1F1" rx="89.105" ry="20.221" style="stroke:#181818;stroke-width:0.5;"/><text fill="#000000" font-family="sans-serif" font-size="14" lengthAdjust="spacing" textLength="136" x="327.605" y="552.2089">RF: Listar Empleados</text></g><g id="elem_UC_D"><ellipse cx="395.5017" cy="624.2597" fill="#F1F1F1" rx="93.0017" ry="21.0003" style="stroke:#181818;stroke-width:0.5;"/><text fill="#000000" font-family="sans-serif" font-size="14" lengthAdjust="spacing" textLength="145" x="323.0017" y="627.9882">RF: Agregar Empleado</text></g><g id="elem_UC_I"><ellipse cx="395.63" cy="702.2854" fill="#F1F1F1" rx="95.63" ry="21.526" style="stroke:#181818;stroke-width:0.5;"/><text fill="#000000" font-family="sans-serif" font-size="14" lengthAdjust="spacing" textLength="151" x="320.13" y="706.0139">RF: Modificar Empleado</text></g><g id="elem_UC_E"><ellipse cx="747.2046" cy="825.2003" fill="#F1F1F1" rx="107.7046" ry="23.9409" style="stroke:#181818;stroke-width:0.5;"/><text fill="#000000" font-family="sans-serif" font-size="14" lengthAdjust="spacing" textLength="178" x="658.2046" y="828.9288">RF: Ver Historial de Puestos</text></g><g id="elem_UC_F"><ellipse cx="395.4736" cy="826.2541" fill="#F1F1F1" rx="115.4736" ry="25.4947" style="stroke:#181818;stroke-width:0.5;"/><text fill="#000000" font-family="sans-serif" font-size="14" lengthAdjust="spacing" textLength="195" x="297.9736" y="829.9826">RF: Cambiar Puesto Empleado</text></g><g id="elem_UC_G"><ellipse cx="395.5137" cy="912.1621" fill="#F1F1F1" rx="115.0137" ry="25.4027" style="stroke:#181818;stroke-width:0.5;"/><text fill="#000000" font-family="sans-serif" font-size="14" lengthAdjust="spacing" textLength="194" x="298.5137" y="915.8906">RF: Ver Historial de Pr&#233;stamos</text></g><g id="elem_UC_K"><ellipse cx="395.4339" cy="1040.3462" fill="#F1F1F1" rx="115.9339" ry="25.5868" style="stroke:#181818;stroke-width:0.5;"/><text fill="#000000" font-family="sans-serif" font-size="14" lengthAdjust="spacing" textLength="196" x="297.4339" y="1044.0747">RF: Solicitar/Agregar Pr&#233;stamo</text></g><g id="elem_UC_H"><ellipse cx="395.2614" cy="1126.1117" fill="#F1F1F1" rx="112.2614" ry="24.8523" style="stroke:#181818;stroke-width:0.5;"/><text fill="#000000" font-family="sans-serif" font-size="14" lengthAdjust="spacing" textLength="188" x="301.2614" y="1129.8402">RF: Ver Detalles de Pr&#233;stamo</text></g><g id="elem_UC_J"><ellipse cx="395.3167" cy="1212.1227" fill="#F1F1F1" rx="117.3167" ry="25.8633" style="stroke:#181818;stroke-width:0.5;"/><text fill="#000000" font-family="sans-serif" font-size="14" lengthAdjust="spacing" textLength="199" x="295.8167" y="1215.8512">RF: Listar Todos los Pr&#233;stamos</text></g><g id="elem_UC_M"><ellipse cx="395.6279" cy="1300.085" fill="#F1F1F1" rx="119.6279" ry="26.3256" style="stroke:#181818;stroke-width:0.5;"/><text fill="#000000" font-family="sans-serif" font-size="14" lengthAdjust="spacing" textLength="204" x="293.6279" y="1303.8135">RF: Listar Pr&#233;stamos Detallados</text></g><g id="elem_UC_ValidarReq"><ellipse cx="746.8789" cy="1193.1352" fill="#F1F1F1" rx="79.8789" ry="18.3758" style="stroke:#181818;stroke-width:0.5;"/><text fill="#000000" font-family="sans-serif" font-size="14" lengthAdjust="spacing" textLength="114" x="688.8373" y="1197.1618">Validar Requisitos</text></g><g id="elem_UC_CalcMonto"><ellipse cx="746.9382" cy="1118.347" fill="#F1F1F1" rx="93.4382" ry="21.0876" style="stroke:#181818;stroke-width:0.5;"/><text fill="#000000" font-family="sans-serif" font-size="14" lengthAdjust="spacing" textLength="146" x="673.9382" y="1122.0755">Calcular Monto M&#225;ximo</text></g><g id="elem_UC_Aprobar"><ellipse cx="747.1585" cy="1038.2911" fill="#F1F1F1" rx="108.1585" ry="24.0317" style="stroke:#181818;stroke-width:0.5;"/><text fill="#000000" font-family="sans-serif" font-size="14" lengthAdjust="spacing" textLength="179" x="657.6585" y="1042.0196">Aprobar/Rechazar Pr&#233;stamo</text></g><g id="elem_UC_L"><ellipse cx="395.5408" cy="1423.4675" fill="#F1F1F1" rx="86.5408" ry="19.7082" style="stroke:#181818;stroke-width:0.5;"/><text fill="#000000" font-family="sans-serif" font-size="14" lengthAdjust="spacing" textLength="130" x="330.5408" y="1427.196">RF: Registrar Abono</text></g><g id="elem_UC_CalcInteres"><ellipse cx="747.1111" cy="1491.4816" fill="#F1F1F1" rx="74.1111" ry="17.2222" style="stroke:#181818;stroke-width:0.5;"/><text fill="#000000" font-family="sans-serif" font-size="14" lengthAdjust="spacing" textLength="99" x="694.6111" y="1495.9982">Calcular Inter&#233;s</text></g><g id="elem_UC_ActSaldo"><ellipse cx="746.8525" cy="1421.1299" fill="#F1F1F1" rx="74.8525" ry="17.3705" style="stroke:#181818;stroke-width:0.5;"/><text fill="#000000" font-family="sans-serif" font-size="14" lengthAdjust="spacing" textLength="101" x="693.3525" y="1425.6465">Actualizar Saldo</text></g><g id="elem_UC_N"><ellipse cx="395.5042" cy="1793.2602" fill="#F1F1F1" rx="100.5042" ry="22.5008" style="stroke:#181818;stroke-width:0.5;"/><text fill="#000000" font-family="sans-serif" font-size="14" lengthAdjust="spacing" textLength="162" x="314.5042" y="1796.9887">RF: Reporte de Pr&#233;stamo</text></g><g id="elem_UC_O"><ellipse cx="395.7387" cy="1618.1071" fill="#F1F1F1" rx="124.7387" ry="27.3477" style="stroke:#181818;stroke-width:0.5;"/><text fill="#000000" font-family="sans-serif" font-size="14" lengthAdjust="spacing" textLength="215" x="288.2387" y="1621.8356">RF: Historial Pr&#233;stamos Empleado</text></g><g id="elem_UC_P"><ellipse cx="395.3414" cy="1708.3277" fill="#F1F1F1" rx="123.3414" ry="27.0683" style="stroke:#181818;stroke-width:0.5;"/><text fill="#000000" font-family="sans-serif" font-size="14" lengthAdjust="spacing" textLength="212" x="289.3414" y="1712.0562">RF: Pr&#233;stamos Activos por Fecha</text></g><!--entity AdminRH--><g id="elem_AdminRH"><ellipse cx="95" cy="517.7594" fill="#ADD8E6" rx="8" ry="8" style="stroke:#181818;stroke-width:0.5;"/><path d="M95,525.7594 L95,552.7594 M82,533.7594 L108,533.7594 M95,552.7594 L82,567.7594 M95,552.7594 L108,567.7594 " fill="none" style="stroke:#181818;stroke-width:0.5;"/><text fill="#000000" font-family="sans-serif" font-size="14" lengthAdjust="spacing" textLength="110" x="40" y="583.7926">Administrador RH</text></g><!--entity AdminPrestamos--><g id="elem_AdminPrestamos"><ellipse cx="95" cy="1155.7594" fill="#90EE90" rx="8" ry="8" style="stroke:#181818;stroke-width:0.5;"/><path d="M95,1163.7594 L95,1190.7594 M82,1171.7594 L108,1171.7594 M95,1190.7594 L82,1205.7594 M95,1190.7594 L108,1205.7594 " fill="none" style="stroke:#181818;stroke-width:0.5;"/><text fill="#000000" font-family="sans-serif" font-size="14" lengthAdjust="spacing" textLength="178" x="6" y="1221.7926">Administrador de Pr&#233;stamos</text></g><!--entity Empleado--><g id="elem_Empleado"><ellipse cx="95" cy="1009.7594" fill="#FFFFE0" rx="8" ry="8" style="stroke:#181818;stroke-width:0.5;"/><path d="M95,1017.7594 L95,1044.7594 M82,1025.7594 L108,1025.7594 M95,1044.7594 L82,1059.7594 M95,1044.7594 L108,1059.7594 " fill="none" style="stroke:#181818;stroke-width:0.5;"/><text fill="#000000" font-family="sans-serif" font-size="14" lengthAdjust="spacing" textLength="63" x="63.5" y="1075.7926">Empleado</text></g><!--entity Consultor--><g id="elem_Consultor"><ellipse cx="95" cy="1587.7594" fill="#FFB6C1" rx="8" ry="8" style="stroke:#181818;stroke-width:0.5;"/><path d="M95,1595.7594 L95,1622.7594 M82,1603.7594 L108,1603.7594 M95,1622.7594 L82,1637.7594 M95,1622.7594 L108,1637.7594 " fill="none" style="stroke:#181818;stroke-width:0.5;"/><text fill="#000000" font-family="sans-serif" font-size="14" lengthAdjust="spacing" textLength="143" x="23.5" y="1653.7926">Consultor de Reportes</text></g><g id="elem_GMN60"><path d="M947.5,1155.7594 L947.5,1189.2594 L827.01,1193.2594 L947.5,1197.2594 L947.5,1231.1656 A0,0 0 0 0 947.5,1231.1656 L1104.5,1231.1656 A0,0 0 0 0 1104.5,1231.1656 L1104.5,1165.7594 L1094.5,1155.7594 L947.5,1155.7594 A0,0 0 0 0 947.5,1155.7594 " fill="#FEFFDD" style="stroke:#181818;stroke-width:0.5;"/><path d="M1094.5,1155.7594 L1094.5,1165.7594 L1104.5,1165.7594 L1094.5,1155.7594 " fill="#FEFFDD" style="stroke:#181818;stroke-width:0.5;"/><text fill="#000000" font-family="sans-serif" font-size="13" lengthAdjust="spacing" textLength="40" x="953.5" y="1174.2545">Valida:</text><text fill="#000000" font-family="sans-serif" font-size="13" lengthAdjust="spacing" textLength="129" x="953.5" y="1190.6061">- Antig&#252;edad &gt;= 1 a&#241;o</text><text fill="#000000" font-family="sans-serif" font-size="13" lengthAdjust="spacing" textLength="136" x="953.5" y="1206.9576">- Sin pr&#233;stamos activos</text><text fill="#000000" font-family="sans-serif" font-size="13" lengthAdjust="spacing" textLength="80" x="953.5" y="1223.3092">- Monto v&#225;lido</text></g><g id="elem_GMN63"><path d="M942,1469.7594 L942,1487.2594 L821.14,1491.2594 L942,1495.2594 L942,1512.4625 A0,0 0 0 0 942,1512.4625 L1110,1512.4625 A0,0 0 0 0 1110,1512.4625 L1110,1479.7594 L1100,1469.7594 L942,1469.7594 A0,0 0 0 0 942,1469.7594 " fill="#FEFFDD" style="stroke:#181818;stroke-width:0.5;"/><path d="M1100,1469.7594 L1100,1479.7594 L1110,1479.7594 L1100,1469.7594 " fill="#FEFFDD" style="stroke:#181818;stroke-width:0.5;"/><text fill="#000000" font-family="sans-serif" font-size="13" lengthAdjust="spacing" textLength="129" x="948" y="1488.2545">Inter&#233;s = Saldo &#215; 0.01</text><text fill="#000000" font-family="sans-serif" font-size="13" lengthAdjust="spacing" textLength="147" x="948" y="1504.6061">Monto = Capital + Inter&#233;s</text></g><g id="elem_GMN66"><path d="M291,209.7594 L291,285.1656 L500,285.1656 L500,219.7594 L490,209.7594 L291,209.7594 " fill="#FEFFDD" style="stroke:#181818;stroke-width:0.5;"/><path d="M490,209.7594 L490,219.7594 L500,219.7594 L490,209.7594 " fill="#FEFFDD" style="stroke:#181818;stroke-width:1.0;"/><text fill="#000000" font-family="sans-serif" font-size="13" lengthAdjust="spacing" textLength="131" x="297" y="228.2545">Estados del pr&#233;stamo:</text><text fill="#000000" font-family="sans-serif" font-size="13" lengthAdjust="spacing" textLength="184" x="297" y="244.6061">SOLICITADO &#8594; APROBADO &#8594;</text><text fill="#000000" font-family="sans-serif" font-size="13" lengthAdjust="spacing" textLength="141" x="297" y="260.9576">ACTIVO &#8594; CONCLUIDO</text><text fill="#000000" font-family="sans-serif" font-size="13" lengthAdjust="spacing" textLength="99" x="297" y="277.3092">(o RECHAZADO)</text></g><!--link AdminRH to UC_A--><g id="link_AdminRH_UC_A"><path d="M130.26,509.0394 C153.9,484.4494 187.39,454.1194 223,436.2594 C253.05,421.1894 283.1881,413.3846 314.4781,408.2846 " fill="none" id="AdminRH-to-UC_A" style="stroke:#181818;stroke-width:1.0;"/><polygon fill="#181818" points="320.4,407.3194,310.8737,404.8193,315.4651,408.1237,312.1607,412.7151,320.4,407.3194" style="stroke:#181818;stroke-width:1.0;"/></g><!--link AdminRH to UC_B--><g id="link_AdminRH_UC_B"><path d="M150.12,531.0494 C172.56,524.1794 198.93,516.4494 223,510.2594 C258.25,501.1994 292.0834,493.74 324.4134,487.08 " fill="none" id="AdminRH-to-UC_B" style="stroke:#181818;stroke-width:1.0;"/><polygon fill="#181818" points="330.29,485.8694,320.668,483.7675,325.3928,486.8782,322.2821,491.603,330.29,485.8694" style="stroke:#181818;stroke-width:1.0;"/></g><!--link AdminRH to UC_C--><g id="link_AdminRH_UC_C"><path d="M150.06,548.2594 C193.57,548.2594 249.61,548.2594 300.3,548.2594 " fill="none" id="AdminRH-to-UC_C" style="stroke:#181818;stroke-width:1.0;"/><polygon fill="#181818" points="306.3,548.2594,297.3,544.2594,301.3,548.2594,297.3,552.2594,306.3,548.2594" style="stroke:#181818;stroke-width:1.0;"/></g><!--link AdminRH to UC_D--><g id="link_AdminRH_UC_D"><path d="M150.19,564.8194 C172.64,571.4794 198.99,579.0394 223,585.2594 C257.14,594.1094 289.5211,601.6156 321.2211,608.6156 " fill="none" id="AdminRH-to-UC_D" style="stroke:#181818;stroke-width:1.0;"/><polygon fill="#181818" points="327.08,609.9094,319.1542,604.0628,322.1976,608.8312,317.4292,611.8746,327.08,609.9094" style="stroke:#181818;stroke-width:1.0;"/></g><!--link AdminRH to UC_I--><g id="link_AdminRH_UC_I"><path d="M129.74,587.3694 C153.41,612.3994 187.13,643.5694 223,662.2594 C250.39,676.5294 276.9806,684.5626 306.2606,690.5226 " fill="none" id="AdminRH-to-UC_I" style="stroke:#181818;stroke-width:1.0;"/><polygon fill="#181818" points="312.14,691.7194,304.1187,686.0046,307.2405,690.7221,302.523,693.8438,312.14,691.7194" style="stroke:#181818;stroke-width:1.0;"/></g><!--link AdminRH to UC_E--><g id="link_AdminRH_UC_E"><path d="M101.9,509.2294 C117.11,414.4094 160.85,176.3294 223,130.2594 C337.61,45.2994 429.91,44.6094 544,130.2594 C657.17,215.2194 726.7726,682.7939 742.0526,795.3139 " fill="none" id="AdminRH-to-UC_E" style="stroke:#181818;stroke-width:1.0;"/><polygon fill="#181818" points="742.86,801.2594,745.6126,791.803,742.1872,796.3048,737.6853,792.8795,742.86,801.2594" style="stroke:#181818;stroke-width:1.0;"/></g><!--link AdminRH to UC_F--><g id="link_AdminRH_UC_F"><path d="M114.23,587.5894 C135.4,629.7994 173.82,696.6294 223,740.2594 C255.02,768.6594 292.5534,787.9313 327.5334,802.3613 " fill="none" id="AdminRH-to-UC_F" style="stroke:#181818;stroke-width:1.0;"/><polygon fill="#181818" points="333.08,804.6494,326.2855,797.5195,328.4578,802.7426,323.2347,804.915,333.08,804.6494" style="stroke:#181818;stroke-width:1.0;"/></g><!--link Empleado to UC_K--><g id="link_Empleado_UC_K"><path d="M126.54,1040.2594 C162.43,1040.2594 218.07,1040.2594 273.2,1040.2594 " fill="none" id="Empleado-to-UC_K" style="stroke:#181818;stroke-width:1.0;"/><polygon fill="#181818" points="279.2,1040.2594,270.2,1036.2594,274.2,1040.2594,270.2,1044.2594,279.2,1040.2594" style="stroke:#181818;stroke-width:1.0;"/></g><!--link Empleado to UC_G--><g id="link_Empleado_UC_G"><path d="M126.54,1027.1594 C177.21,1005.4394 273.7356,964.044 336.2356,937.244 " fill="none" id="Empleado-to-UC_G" style="stroke:#181818;stroke-width:1.0;"/><polygon fill="#181818" points="341.75,934.8794,331.902,934.75,337.1547,936.8499,335.0548,942.1025,341.75,934.8794" style="stroke:#181818;stroke-width:1.0;"/></g><!--link Empleado to UC_H--><g id="link_Empleado_UC_H"><path d="M126.57,1051.3894 C152.16,1060.5094 189.73,1073.4694 223,1083.2594 C253.48,1092.2194 281.5226,1099.5406 311.0526,1106.7806 " fill="none" id="Empleado-to-UC_H" style="stroke:#181818;stroke-width:1.0;"/><polygon fill="#181818" points="316.88,1108.2094,309.0914,1102.1813,312.0238,1107.0188,307.1864,1109.9512,316.88,1108.2094" style="stroke:#181818;stroke-width:1.0;"/></g><!--link AdminPrestamos to UC_K--><g id="link_AdminPrestamos_UC_K"><path d="M134.85,1147.1994 C158.5,1125.4594 190.37,1099.5694 223,1083.2594 C247.57,1070.9794 270.1004,1063.4493 296.5804,1056.9993 " fill="none" id="AdminPrestamos-to-UC_K" style="stroke:#181818;stroke-width:1.0;"/><polygon fill="#181818" points="302.41,1055.5794,292.719,1053.823,297.552,1056.7627,294.6123,1061.5957,302.41,1055.5794" style="stroke:#181818;stroke-width:1.0;"/></g><!--link AdminPrestamos to UC_L--><g id="link_AdminPrestamos_UC_L"><path d="M120.16,1225.3294 C143.15,1259.9494 180.47,1310.0094 223,1343.2594 C260.01,1372.1994 303.5631,1391.6865 339.7631,1405.0865 " fill="none" id="AdminPrestamos-to-UC_L" style="stroke:#181818;stroke-width:1.0;"/><polygon fill="#181818" points="345.39,1407.1694,338.3383,1400.2938,340.7009,1405.4336,335.5611,1407.7963,345.39,1407.1694" style="stroke:#181818;stroke-width:1.0;"/></g><!--link AdminPrestamos to UC_J--><g id="link_AdminPrestamos_UC_J"><path d="M184.35,1193.9594 C216.24,1196.7294 246.6326,1199.3787 280.0426,1202.2887 " fill="none" id="AdminPrestamos-to-UC_J" style="stroke:#181818;stroke-width:1.0;"/><polygon fill="#181818" points="286.02,1202.8094,277.401,1198.0435,281.0389,1202.3755,276.7069,1206.0133,286.02,1202.8094" style="stroke:#181818;stroke-width:1.0;"/></g><!--link AdminPrestamos to UC_M--><g id="link_AdminPrestamos_UC_M"><path d="M160.79,1225.3594 C180.32,1236.0694 202.12,1246.9894 223,1255.2594 C250.19,1266.0294 274.9935,1273.5269 302.7635,1280.5569 " fill="none" id="AdminPrestamos-to-UC_M" style="stroke:#181818;stroke-width:1.0;"/><polygon fill="#181818" points="308.58,1282.0294,300.8369,1275.943,303.7329,1280.8023,298.8736,1283.6984,308.58,1282.0294" style="stroke:#181818;stroke-width:1.0;"/></g><!--link AdminPrestamos to UC_Aprobar--><g id="link_AdminPrestamos_UC_Aprobar"><path d="M146.85,1146.8494 C161.51,1132.6194 175.75,1115.3094 184,1096.2594 C223.95,1003.9994 150.39,261.7994 223,192.2594 C326.03,93.5794 437.06,97.8294 544,192.2594 C607.96,248.7394 597,879.9894 639,954.2594 C653.94,980.6794 675.7509,998.5612 698.8409,1012.9812 " fill="none" id="AdminPrestamos-to-UC_Aprobar" style="stroke:#181818;stroke-width:1.0;"/><polygon fill="#181818" points="703.93,1016.1594,698.4152,1007.9993,699.6891,1013.5109,694.1775,1014.7848,703.93,1016.1594" style="stroke:#181818;stroke-width:1.0;"/></g><!--link AdminPrestamos to UC_H--><g id="link_AdminPrestamos_UC_H"><path d="M184.35,1168.4994 C224.58,1160.4194 266.0476,1152.0815 305.6076,1144.1315 " fill="none" id="AdminPrestamos-to-UC_H" style="stroke:#181818;stroke-width:1.0;"/><polygon fill="#181818" points="311.49,1142.9494,301.8783,1140.801,306.588,1143.9345,303.4545,1148.6442,311.49,1142.9494" style="stroke:#181818;stroke-width:1.0;"/></g><!--link Consultor to UC_N--><g id="link_Consultor_UC_N"><path d="M123.04,1657.3294 C146.13,1687.7394 182.05,1728.6294 223,1752.2594 C248.45,1766.9494 273.0643,1775.1271 301.2243,1781.1871 " fill="none" id="Consultor-to-UC_N" style="stroke:#181818;stroke-width:1.0;"/><polygon fill="#181818" points="307.09,1782.4494,299.133,1776.6455,302.2019,1781.3975,297.4499,1784.4664,307.09,1782.4494" style="stroke:#181818;stroke-width:1.0;"/></g><!--link Consultor to UC_O--><g id="link_Consultor_UC_O"><path d="M166.74,1618.2594 C197.86,1618.2594 229.34,1618.2594 264.84,1618.2594 " fill="none" id="Consultor-to-UC_O" style="stroke:#181818;stroke-width:1.0;"/><polygon fill="#181818" points="270.84,1618.2594,261.84,1614.2594,265.84,1618.2594,261.84,1622.2594,270.84,1618.2594" style="stroke:#181818;stroke-width:1.0;"/></g><!--link Consultor to UC_P--><g id="link_Consultor_UC_P"><path d="M166.52,1644.4294 C184.81,1650.8894 204.56,1657.5794 223,1663.2594 C251.98,1672.1794 278.2402,1679.4005 306.7302,1686.7505 " fill="none" id="Consultor-to-UC_P" style="stroke:#181818;stroke-width:1.0;"/><polygon fill="#181818" points="312.54,1688.2494,304.8246,1682.1279,307.6985,1687.0003,302.8261,1689.8743,312.54,1688.2494" style="stroke:#181818;stroke-width:1.0;"/></g><!--link Consultor to UC_J--><g id="link_Consultor_UC_J"><path d="M98.08,1579.0694 C104.19,1504.7794 128.27,1343.1494 223,1256.2594 C240.9,1239.8494 258.3054,1230.9985 281.8054,1224.3685 " fill="none" id="Consultor-to-UC_J" style="stroke:#181818;stroke-width:1.0;"/><polygon fill="#181818" points="287.58,1222.7394,277.832,1221.3334,282.7678,1224.097,280.0042,1229.0329,287.58,1222.7394" style="stroke:#181818;stroke-width:1.0;"/></g><!--link Consultor to UC_M--><g id="link_Consultor_UC_M"><path d="M109.29,1578.9494 C127.88,1528.9494 165.93,1442.4694 223,1387.2594 C253,1358.2394 289.0435,1339.1077 323.7535,1324.7877 " fill="none" id="Consultor-to-UC_M" style="stroke:#181818;stroke-width:1.0;"/><polygon fill="#181818" points="329.3,1322.4994,319.4547,1322.2341,324.6779,1324.4063,322.5057,1329.6295,329.3,1322.4994" style="stroke:#181818;stroke-width:1.0;"/></g><!--link UC_K to UC_ValidarReq--><g id="link_UC_K_UC_ValidarReq"><path d="M494.29,1053.6394 C512.71,1060.0694 530.43,1069.4894 544,1083.2594 C553.39,1092.7794 543.53,1101.9094 552,1112.2594 C579.44,1145.7894 599.1,1139.3594 639,1156.2594 C658.19,1164.3794 674.1409,1170.2129 692.9109,1176.5029 " fill="none" id="UC_K-to-UC_ValidarReq" style="stroke:#181818;stroke-width:1.0;stroke-dasharray:7.0,7.0;"/><polygon fill="#181818" points="698.6,1178.4094,691.3374,1171.757,693.8591,1176.8207,688.7954,1179.3424,698.6,1178.4094" style="stroke:#181818;stroke-width:1.0;"/><text fill="#000000" font-family="sans-serif" font-size="13" lengthAdjust="spacing" textLength="55" x="553" y="1108.7545">&#171;include&#187;</text></g><!--link UC_K to UC_CalcMonto--><g id="link_UC_K_UC_CalcMonto"><path d="M477.56,1058.3494 C539.06,1072.0794 616.694,1089.4028 674.154,1102.2228 " fill="none" id="UC_K-to-UC_CalcMonto" style="stroke:#181818;stroke-width:1.0;stroke-dasharray:7.0,7.0;"/><polygon fill="#181818" points="680.01,1103.5294,672.097,1097.6655,675.13,1102.4406,670.3549,1105.4736,680.01,1103.5294" style="stroke:#181818;stroke-width:1.0;"/><text fill="#000000" font-family="sans-serif" font-size="13" lengthAdjust="spacing" textLength="55" x="553" y="1073.7545">&#171;include&#187;</text></g><!--link UC_K to UC_Aprobar--><g id="link_UC_K_UC_Aprobar"><path d="M511.91,1039.5994 C552.87,1039.3694 592.7601,1039.1337 632.9901,1038.9037 " fill="none" id="UC_K-to-UC_Aprobar" style="stroke:#181818;stroke-width:1.0;stroke-dasharray:7.0,7.0;"/><polygon fill="#181818" points="638.99,1038.8694,629.9673,1034.9209,633.9901,1038.898,630.013,1042.9208,638.99,1038.8694" style="stroke:#181818;stroke-width:1.0;"/><text fill="#000000" font-family="sans-serif" font-size="13" lengthAdjust="spacing" textLength="53" x="554" y="1035.7545">&#171;extend&#187;</text></g><!--link UC_L to UC_CalcInteres--><g id="link_UC_L_UC_CalcInteres"><path d="M461.42,1435.8894 C527.16,1448.6794 621.8703,1467.114 684.1903,1479.234 " fill="none" id="UC_L-to-UC_CalcInteres" style="stroke:#181818;stroke-width:1.0;stroke-dasharray:7.0,7.0;"/><polygon fill="#181818" points="690.08,1480.3794,682.0091,1474.7348,685.172,1479.4249,680.4819,1482.5877,690.08,1480.3794" style="stroke:#181818;stroke-width:1.0;"/><text fill="#000000" font-family="sans-serif" font-size="13" lengthAdjust="spacing" textLength="55" x="553" y="1451.7545">&#171;include&#187;</text></g><!--link UC_L to UC_ActSaldo--><g id="link_UC_L_UC_ActSaldo"><path d="M482,1422.7694 C540.1,1422.4394 610.1901,1422.0339 665.7501,1421.7139 " fill="none" id="UC_L-to-UC_ActSaldo" style="stroke:#181818;stroke-width:1.0;stroke-dasharray:7.0,7.0;"/><polygon fill="#181818" points="671.75,1421.6794,662.7271,1417.7313,666.7501,1421.7082,662.7732,1425.7311,671.75,1421.6794" style="stroke:#181818;stroke-width:1.0;"/><text fill="#000000" font-family="sans-serif" font-size="13" lengthAdjust="spacing" textLength="55" x="553" y="1418.7545">&#171;include&#187;</text></g><!--link UC_F to UC_E--><g id="link_UC_F_UC_E"><path d="M511.42,825.9294 C552.61,825.8094 592.83,825.6957 633.29,825.5857 " fill="none" id="UC_F-to-UC_E" style="stroke:#181818;stroke-width:1.0;stroke-dasharray:7.0,7.0;"/><polygon fill="#181818" points="639.29,825.5694,630.2792,821.5939,634.29,825.583,630.3009,829.5938,639.29,825.5694" style="stroke:#181818;stroke-width:1.0;"/><text fill="#000000" font-family="sans-serif" font-size="13" lengthAdjust="spacing" textLength="55" x="553" y="822.7545">&#171;include&#187;</text></g><!--link UC_K to GMN66--><g id="link_UC_K_GMN66"><path d="M314.82,1021.8794 C271.63,1007.0994 223.33,981.1994 203.5,936.7594 C178.42,880.5494 178.42,438.9694 203.5,382.7594 C223.03,338.9794 265.08,306.8494 304.87,284.8894 " fill="none" id="UC_K-GMN66" style="stroke:#181818;stroke-width:1.0;stroke-dasharray:7.0,7.0;"/></g><!--SRC=[ZLRBJjj05DtxAwvWGQigFAGkK0IHZ1EJqBpa05AxgGPxC2CcdjIUK6Z5jX_GJTSikwowxIv_qY_fzMFy6XkAG6JEFVSzSsyulPOW1OJClv7WiP2waed0Y6vPi28XMSAAkBV4fmlvm2d4OXBud1g6P1A1FYC-iWXu52mIYIZ-S149wC22HPAcadcu-Hb9iXIHOH1NYX2sJ6_90cI4nCEZCzm24a42EaFO7iVXdF0rRQPNJ1QQyv2cK6RWDAGqK1O6onMdg9tGrI4ZlgUSYy-AQOaWMdEP-d7eIeIIfbuAIQetPy6jOUH5WQrIpgSO2zly3kh1VZK0y3ShAsoLUHQHcoSk_9YttKz-4Zx0Eg8kYP3ks5qOenSImdoDgbd-5zP7KoUQVaZzdAc89wqMLLbocrQxpKezaThNgHFXiMlcDf17I7vyfX13Z4U4Z72im-3GVciVDjNXaeO5CwbpjI83NSKYookMLqIBo_uV9zMRXrgdBsHJrjYsz-t3GMCw2y6Pox0FUtdVbABozAuvlZwLX7CQLPmfdM5hkyy5jXeu_kavdRLVkvoR-IrVc4bLxP9mvg6EGp-jMSHAlSaaAAXgM8IxQuug4n5WWoQRftjMv19B4q5LoLo5uWhhvb3tXdnfAbp6UA5HvfK8qYRPRKrog9-CeJ0bA_lZbYn6WQHnBEK44en6jHHSkSQInC4l22zk9EB9kI5oDPhWGGqcaiIEaTlxpR4d2estPAhJYrjVQddznSnqlH8ResTt-1_zWXqtHwdDatmU3MC7e-B4nPr3eoxKjuAXDaAdqqjdN0qugGDM7UZNWL4T6DG1knwMIjh8zqR6VASXfneoV3x9wdgixR7SJJC-Ri7FMl192wvUHxDKIo1VWqQn43FkL8TcEZJNeJCTcbJz0WjSllRe7hsNDF2Ck2wmkzkhJXFemj5HnkprAgHyU3p3oIgHC58_I8WPuxALx0NhTdAMUhOrIion5MTG5-x0LE0R1dg_mar0yEcGo0W4ljZqwvcurYPdUkZYfmwOWMJ-vW_rY0UzOpW0ilab4ic21R0gNYL9NsKYIWjoXryx6Dvlp1TYXuRkjZgvr5o3utHSmUO7xE_k7w0ejNYCgtQ5oup3cvnSDtybf1JBp7wysWOOe9TyX-H5l75oYzbuP8tEpVuC_dxx3kRScPse0ufDwtnqcPwisTGQNupwyLnw9S0PM4Fp0r9V5yx_0G00]--></g></svg>